<svg width="183" height="126" viewBox="0 0 183 126" fill="none" xmlns="http://www.w3.org/2000/svg">
<path fill-rule="evenodd" clip-rule="evenodd" d="M11.5623 0.889776C-6.8947 7.27978 -2.0777 31.7538 17.6763 31.9588C28.0963 32.0668 60.4813 65.4058 60.2603 75.7958C60.0553 85.3688 51.9373 94.4878 44.3783 93.6358C30.0803 92.0238 20.7493 106.971 28.9693 118.319C38.6043 131.62 58.4653 124.586 57.7923 108.11C57.4273 99.1598 66.0033 90.5608 74.6893 91.1688C92.0873 92.3858 98.4173 69.5748 82.9033 61.5728C79.3853 59.7588 77.3733 59.3678 73.6553 59.7758C65.8363 60.6348 31.4063 25.3458 31.7983 16.8758C32.3343 5.29678 22.1273 -2.76722 11.5623 0.889776ZM132.302 2.29278C127.247 5.37478 124.578 10.6888 124.642 17.5388C124.726 26.4488 116.977 33.8668 107.508 33.9398C97.3633 34.0178 90.9073 40.3078 90.9073 50.1118C90.9073 59.5538 97.5493 65.6568 107.676 65.5218C116.491 65.4028 151.187 99.8348 150.345 107.865C148.999 120.706 164.627 130.172 174.771 122.66C188.973 112.143 180.943 91.6628 163.394 93.6408C155.32 94.5508 122.06 59.2908 122.127 49.8918C122.2 39.7578 130.147 31.0498 138.434 32.0238C154.711 33.9368 162.959 12.9618 149.705 3.36078C144.682 -0.278223 137.265 -0.733224 132.302 2.29278ZM106.907 5.39178C104.253 8.04578 104.355 11.8918 107.13 13.8348C110.088 15.9078 113.226 15.8018 115.252 13.5628C120.447 7.82278 112.377 -0.0782228 106.907 5.39178ZM18.7073 12.5918C20.9623 14.8468 20.1733 19.2868 17.3943 19.9848C14.2953 20.7618 11.9073 18.9498 11.9073 15.8188C11.9073 12.2718 16.3013 10.1858 18.7073 12.5918ZM143.494 13.8838C145.541 17.0078 144.777 19.1358 141.294 20.0098C136.903 21.1118 134.243 16.1988 137.478 12.9628C139.717 10.7248 141.614 11.0148 143.494 13.8838ZM48.1573 13.9188C45.0023 16.1428 45.1283 20.8348 48.4003 22.9788C54.0273 26.6658 60.0623 20.7668 56.1063 15.4468C53.7853 12.3258 51.1383 11.8168 48.1573 13.9188ZM71.2743 30.3098C62.5753 35.6138 63.1253 44.8988 72.3353 48.2298C82.8833 52.0438 89.4513 37.0208 80.0093 30.6758C75.8903 27.9068 75.2583 27.8808 71.2743 30.3098ZM135.98 43.0268C133.345 46.3758 133.377 46.9528 136.362 49.9368C140.552 54.1278 145.907 51.9858 145.907 46.1198C145.907 40.7618 139.365 38.7238 135.98 43.0268ZM160.097 49.3658C153.215 53.6688 152.3 60.7848 157.907 66.3918C163.047 71.5318 168.703 71.7388 173.478 66.9628C182.504 57.9368 170.866 42.6318 160.097 49.3658ZM9.3073 58.7918C2.8813 65.2178 5.4143 74.4238 14.4273 77.3978C18.6023 78.7758 24.8593 75.9878 26.7103 71.9248C32.0393 60.2288 18.2653 49.8338 9.3073 58.7918ZM37.7873 75.3578C33.1973 79.9478 37.1103 86.3828 43.5133 84.7758C48.3653 83.5578 49.3673 77.6848 45.2723 74.4648C41.8453 71.7688 41.3133 71.8318 37.7873 75.3578ZM102.211 78.2958C97.7563 81.0848 95.9653 87.0238 98.4403 90.8008C104.349 99.8198 116.907 96.8208 116.907 86.3918C116.907 78.3078 109.081 73.9968 102.211 78.2958ZM126.994 102.305C122.848 106.451 125.214 112.773 130.851 112.613C134.939 112.496 137.108 109.882 136.4 105.923C135.471 100.724 130.491 98.8078 126.994 102.305ZM44.3403 106.318C46.3903 108.583 46.1103 111.235 43.6573 112.78C39.8183 115.197 36.1333 109.308 39.4253 106.017C41.5133 103.928 42.2163 103.971 44.3403 106.318ZM167.973 105.427C170.499 106.779 170.535 111.519 168.031 113.082C163.888 115.67 160.173 109.966 163.562 106.221C165.499 104.08 165.467 104.086 167.973 105.427ZM67.2793 111.726C64.6993 114.745 64.7263 117.302 67.3663 119.942C72.1973 124.772 80.1343 119.464 76.8553 113.596C75.1483 110.541 69.2733 109.393 67.2793 111.726Z" fill="url(#paint0_linear_2_12)"/>
<defs>
<linearGradient id="paint0_linear_2_12" x1="198" y1="119.439" x2="-263" y2="-66.5612" gradientUnits="userSpaceOnUse">
<stop stop-color="#009CF1"/>
<stop offset="1" stop-color="white" stop-opacity="0"/>
</linearGradient>
</defs>
</svg>
